<?xml version="1.0" standalone="no"?>
<!DOCTYPE svg PUBLIC "-//W3C//DTD SVG 20010904//EN"
 "http://www.w3.org/TR/2001/REC-SVG-20010904/DTD/svg10.dtd">
<svg version="1.0" xmlns="http://www.w3.org/2000/svg"
 width="512.000000pt" height="512.000000pt" viewBox="0 0 512.000000 512.000000"
 preserveAspectRatio="xMidYMid meet">
<metadata>
Created by potrace 1.11, written by Peter Selinger 2001-2013
</metadata>
<g transform="translate(0.000000,512.000000) scale(0.100000,-0.100000)"
fill="#000000" stroke="none">
<path d="M2385 4060 c-22 -5 -64 -11 -94 -15 -30 -4 -66 -11 -80 -17 -14 -5
-26 -9 -26 -8 0 4 -94 -23 -145 -41 -91 -34 -230 -110 -311 -171 -175 -131
-308 -313 -403 -547 -28 -68 -81 -276 -91 -351 -43 -348 -12 -694 87 -965 110
-302 307 -529 563 -648 99 -46 240 -89 338 -103 15 -2 39 -6 54 -9 102 -18
335 -24 453 -11 300 32 684 189 868 354 l42 39 -25 57 c-14 31 -41 90 -60 130
-19 41 -35 78 -35 84 0 5 -6 15 -13 21 -10 8 -30 2 -79 -24 -121 -65 -339
-134 -478 -153 -69 -9 -263 -9 -310 0 -206 41 -346 146 -448 338 -64 119 -100
253 -120 448 l-8 72 782 0 782 0 6 24 c3 12 8 41 11 62 3 21 8 48 10 60 9 43
18 225 18 356 -3 381 -131 660 -387 843 -108 77 -292 146 -456 171 -59 9 -403
12 -445 4z m205 -345 c166 -28 261 -180 287 -459 6 -60 8 -234 4 -353 l-1 -33
-411 0 -410 0 6 110 c9 164 14 212 41 345 42 218 174 373 333 392 25 3 47 7
49 8 4 3 48 -1 102 -10z"/>
</g>
</svg>
