<svg version="1" xmlns="http://www.w3.org/2000/svg" width="682.667" height="682.667" viewBox="0 0 512.000000 512.000000"><path d="M238.5 106c-2.2.5-6.4 1.1-9.4 1.5-3 .4-6.6 1.1-8 1.7-1.4.5-2.6.9-2.6.8 0-.4-9.4 2.3-14.5 4.1-9.1 3.4-23 11-31.1 17.1-17.5 13.1-30.8 31.3-40.3 54.7-2.8 6.8-8.1 27.6-9.1 35.1-4.3 34.8-1.2 69.4 8.7 96.5 11 30.2 30.7 52.9 56.3 64.8 9.9 4.6 24 8.9 33.8 10.3 1.5.2 3.9.6 5.4.9 10.2 1.8 33.5 2.4 45.3 1.1 30-3.2 68.4-18.9 86.8-35.4l4.2-3.9-2.5-5.7c-1.4-3.1-4.1-9-6-13-1.9-4.1-3.5-7.8-3.5-8.4 0-.5-.6-1.5-1.3-2.1-1-.8-3-.2-7.9 2.4-12.1 6.5-33.9 13.4-47.8 15.3-6.9.9-26.3.9-31 0-20.6-4.1-34.6-14.6-44.8-33.8-6.4-11.9-10-25.3-12-44.8l-.8-7.2h156.4l.6-2.4c.3-1.2.8-4.1 1.1-6.2.3-2.1.8-4.8 1-6 .9-4.3 1.8-22.5 1.8-35.6-.3-38.1-13.1-66-38.7-84.3-10.8-7.7-29.2-14.6-45.6-17.1-5.9-.9-40.3-1.2-44.5-.4zm20.5 34.5c16.6 2.8 26.1 18 28.7 45.9.6 6 .8 23.4.4 35.3l-.1 3.3h-82.1l.6-11c.9-16.4 1.4-21.2 4.1-34.5 4.2-21.8 17.4-37.3 33.3-39.2 2.5-.3 4.7-.7 4.9-.8.4-.3 4.8.1 10.2 1z"/></svg>